<svg width="233" height="3360" viewBox="0 0 233 3360" fill="none" xmlns="http://www.w3.org/2000/svg">
<path fill-rule="evenodd" clip-rule="evenodd" d="M46 826.61C80.5784 826.61 108.61 798.578 108.61 764C108.61 729.422 80.5784 701.39 46 701.39C11.4216 701.39 -16.6098 729.422 -16.6098 764C-16.6098 798.578 11.4216 826.61 46 826.61ZM46 915C129.395 915 197 847.395 197 764C197 680.605 129.395 613 46 613C-37.395 613 -105 680.605 -105 764C-105 847.395 -37.395 915 46 915Z" fill="#F3F7F8"/>
<path fill-rule="evenodd" clip-rule="evenodd" d="M52 3254.05C93.4483 3254.05 127.049 3220.45 127.049 3179C127.049 3137.55 93.4483 3103.95 52 3103.95C10.5517 3103.95 -23.0488 3137.55 -23.0488 3179C-23.0488 3220.45 10.5517 3254.05 52 3254.05ZM52 3360C151.964 3360 233 3278.96 233 3179C233 3079.04 151.964 2998 52 2998C-47.9635 2998 -129 3079.04 -129 3179C-129 3278.96 -47.9635 3360 52 3360Z" fill="#FFDB5E"/>
<path fill-rule="evenodd" clip-rule="evenodd" d="M1.5 35.9333C7.81446 35.9333 12.9333 30.8145 12.9333 24.5C12.9333 18.1855 7.81446 13.0667 1.5 13.0667C-4.81446 13.0667 -9.93333 18.1855 -9.93333 24.5C-9.93333 30.8145 -4.81446 35.9333 1.5 35.9333ZM1.5 49C15.031 49 26 38.031 26 24.5C26 10.969 15.031 0 1.5 0C-12.031 0 -23 10.969 -23 24.5C-23 38.031 -12.031 49 1.5 49Z" fill="#FFDB5E"/>
</svg>
